<?xml version="1.0" encoding="utf-8"?>
<!-- Generator: Adobe Illustrator 19.1.0, SVG Export Plug-In . SVG Version: 6.00 Build 0)  -->
<svg version="1.1" id="Layer_1" xmlns="http://www.w3.org/2000/svg" xmlns:xlink="http://www.w3.org/1999/xlink" x="0px" y="0px"
	 viewBox="0 0 30.8 30.8" style="enable-background:new 0 0 30.8 30.8;" xml:space="preserve">
<style type="text/css">
	.st0{fill:#255B9F;}
</style>
<path class="st0" d="M15.4,0C6.9,0,0,6.9,0,15.4c0,8.5,6.9,15.4,15.4,15.4c8.5,0,15.4-6.9,15.4-15.4C30.8,6.9,23.9,0,15.4,0z
	 M19.5,15.4h-2.9c0,4.3,0,9.6,0,9.6h-3.9c0,0,0-5.3,0-9.6h-1.9v-3.9h1.9V9.8c0-1.6,0.8-4,4.1-4l3,0v3.3c0,0-1.8,0-2.2,0
	s-0.9,0.2-0.9,0.9v1.5h3.1L19.5,15.4z"/>
</svg>
