<?xml version="1.0" encoding="utf-8"?>
<!-- Generator: Adobe Illustrator 19.1.0, SVG Export Plug-In . SVG Version: 6.00 Build 0)  -->
<svg version="1.1" id="Layer_1" xmlns="http://www.w3.org/2000/svg" xmlns:xlink="http://www.w3.org/1999/xlink" x="0px" y="0px"
	 viewBox="0 0 30.8 30.8" style="enable-background:new 0 0 30.8 30.8;" xml:space="preserve">
<style type="text/css">
	.st0{fill:#EF4537;}
</style>
<path class="st0" d="M15.4,0C6.9,0,0,6.9,0,15.4c0,8.5,6.9,15.4,15.4,15.4c8.5,0,15.4-6.9,15.4-15.4C30.8,6.9,23.9,0,15.4,0z
	 M13.5,23.8c-0.6,0.2-1.4,0.3-2.1,0.3c-0.8,0-1.6-0.1-2.3-0.3c-1.4-0.4-2.5-1-3-1.9c-0.2-0.4-0.3-0.8-0.3-1.2c0-0.4,0.1-0.9,0.3-1.3
	c0.8-1.7,2.8-2.8,5.1-2.8l0.1,0c-0.2-0.3-0.3-0.7-0.3-1c0-0.2,0-0.4,0.1-0.5c-2.4-0.1-4.2-1.8-4.2-4.1C6.9,9.3,8.2,7.7,10,7
	c0.6-0.2,1.1-0.3,1.7-0.3h5.1c0.2,0,0.3,0.1,0.4,0.3c0.1,0.2,0,0.3-0.1,0.4l-1.1,0.8l-0.2,0.1h-0.4c0.5,0.6,0.8,1.5,0.8,2.6
	c0,1.1-0.6,2.2-1.6,3c-0.8,0.6-0.8,0.8-0.8,1.1c0,0.2,0.6,0.8,1.2,1.3c1.4,1,2,2,2,3.7C16.8,21.7,15.5,23.2,13.5,23.8z M25,15
	c0,0.2-0.2,0.4-0.4,0.4h-2.9v2.9c0,0.2-0.2,0.4-0.4,0.4h-0.8c-0.2,0-0.4-0.2-0.4-0.4v-2.9h-2.9c-0.2,0-0.4-0.2-0.4-0.4v-0.8
	c0-0.2,0.2-0.4,0.4-0.4h2.9v-2.9c0-0.2,0.2-0.4,0.4-0.4h0.8c0.2,0,0.4,0.2,0.4,0.4v2.9h2.9c0.2,0,0.4,0.2,0.4,0.4V15z"/>
<path class="st0" d="M11.9,13.7L11.9,13.7c0.4,0,0.8-0.2,1-0.5c0.4-0.5,0.6-1.3,0.5-2.1c-0.2-1.5-1.3-2.8-2.4-2.8l0,0
	c-0.4,0-0.8,0.2-1,0.5C9.6,9.2,9.4,10,9.5,10.8C9.7,12.3,10.8,13.7,11.9,13.7L11.9,13.7z"/>
<path class="st0" d="M13.2,18.3c-0.1-0.1-0.2-0.2-0.3-0.2c-0.3-0.1-0.7-0.2-1.1-0.2l0,0c-1.7,0-3.3,1.1-3.3,2.3c0,1.3,1.3,2.3,3,2.3
	c2.2,0,3.3-0.8,3.3-2.3c0-0.1,0-0.3-0.1-0.4C14.5,19.2,14,18.8,13.2,18.3z"/>
</svg>
