<?xml version="1.0" encoding="utf-8"?>
<!-- Generator: Adobe Illustrator 19.1.0, SVG Export Plug-In . SVG Version: 6.00 Build 0)  -->
<svg version="1.1" id="Layer_1" xmlns="http://www.w3.org/2000/svg" xmlns:xlink="http://www.w3.org/1999/xlink" x="0px" y="0px"
	 viewBox="0 0 30.8 30.8" style="enable-background:new 0 0 30.8 30.8;" xml:space="preserve">
<style type="text/css">
	.st0{fill:#2E80A8;}
</style>
<polygon class="st0" points="22.8,11.3 22.8,8.4 22.8,8 22.4,8 19.5,8 19.5,11.3 "/>
<path class="st0" d="M15.4,18.8c1.9,0,3.4-1.5,3.4-3.4c0-0.7-0.2-1.4-0.6-2c-0.6-0.9-1.6-1.4-2.7-1.4c-1.1,0-2.1,0.6-2.7,1.4
	c-0.4,0.6-0.6,1.2-0.6,2C12,17.3,13.5,18.8,15.4,18.8z"/>
<path class="st0" d="M20.7,15.4c0,2.9-2.4,5.3-5.3,5.3c-2.9,0-5.3-2.4-5.3-5.3c0-0.7,0.1-1.4,0.4-2H7.7v7.9c0,1,0.8,1.8,1.8,1.8
	h11.8c1,0,1.8-0.8,1.8-1.8v-7.9h-2.9C20.5,14,20.7,14.7,20.7,15.4z"/>
<path class="st0" d="M15.4,0C6.9,0,0,6.9,0,15.4c0,8.5,6.9,15.4,15.4,15.4c8.5,0,15.4-6.9,15.4-15.4C30.8,6.9,23.9,0,15.4,0z
	 M25,13.4v7.9c0,2.1-1.7,3.7-3.7,3.7H9.5c-2.1,0-3.7-1.7-3.7-3.7v-7.9V9.5c0-2.1,1.7-3.7,3.7-3.7h11.8c2.1,0,3.7,1.7,3.7,3.7V13.4z"
	/>
</svg>
