<?xml version="1.0" encoding="utf-8"?>
<!-- Generator: Adobe Illustrator 19.1.0, SVG Export Plug-In . SVG Version: 6.00 Build 0)  -->
<svg version="1.1" id="Layer_1" xmlns="http://www.w3.org/2000/svg" xmlns:xlink="http://www.w3.org/1999/xlink" x="0px" y="0px"
	 viewBox="0 0 223.4 147.8" style="enable-background:new 0 0 223.4 147.8;" xml:space="preserve">
<style type="text/css">
	.st0{fill:#A0A0A0;}
</style>
<g>
	<path class="st0" d="M0,147.8c74.7,0,149,0,223.4,0c0-49.4,0-98.5,0-147.8C148.8,0,74.6,0,0,0C0,49.6,0,98.7,0,147.8z M20.3,136.7
		c21.3-18.7,42-36.8,63.1-55.4c9.4,8.2,18.7,16.4,28.3,24.7c9.5-8.3,18.7-16.4,28.3-24.7c20.9,18.4,41.7,36.6,63.1,55.4
		C141.9,136.7,81.7,136.7,20.3,136.7z M212.2,130.1c-21.4-18.7-42.4-37.2-63.9-56.1c21.4-18.8,42.4-37.2,63.9-56.2
		C212.2,55.4,212.2,92.3,212.2,130.1z M202.9,11.3c-30.7,26.9-60.7,53.3-91.2,80.1C81.2,64.7,51.2,38.3,20.5,11.3
		C81.5,11.3,141.7,11.3,202.9,11.3z M10.9,17.7c21.6,19,42.7,37.5,64.1,56.3c-21.4,18.8-42.5,37.3-64.1,56.3
		C10.9,92.4,10.9,55.5,10.9,17.7z"/>
</g>
</svg>
