<?xml version="1.0" encoding="utf-8"?>
<!-- Generator: Adobe Illustrator 19.1.0, SVG Export Plug-In . SVG Version: 6.00 Build 0)  -->
<svg version="1.1" id="Layer_1" xmlns="http://www.w3.org/2000/svg" xmlns:xlink="http://www.w3.org/1999/xlink" x="0px" y="0px"
	 viewBox="0 0 30.8 30.8" style="enable-background:new 0 0 30.8 30.8;" xml:space="preserve">
<style type="text/css">
	.st0{fill:#0F4361;}
</style>
<g>
	<path class="st0" d="M15.4,0C6.9,0,0,6.9,0,15.4c0,8.5,6.9,15.4,15.4,15.4c8.5,0,15.4-6.9,15.4-15.4C30.8,6.9,23.9,0,15.4,0z
		 M21.2,24c-0.8,0.4-1.5,0.7-2.1,0.8C18.4,25,17.7,25,17,25c-0.8,0-1.3-0.1-2-0.3c-0.6-0.2-1.2-0.5-1.7-1c-0.5-0.4-0.8-0.8-0.9-1.3
		c-0.2-0.5-0.3-1.1-0.3-2v-6.8H9.6v-2.7c0.7-0.2,1.6-0.6,2.1-1.1c0.5-0.5,0.9-1,1.2-1.7c0.3-0.6,0.5-1.5,0.6-2.5h2.6v4.5h4.3v3.4
		h-4.3v4.9c0,1.1,0,1.8,0.1,2.1c0.1,0.3,0.4,0.6,0.7,0.8c0.4,0.3,0.9,0.4,1.4,0.4c0.9,0,1.9-0.3,2.8-1V24z"/>
</g>
</svg>
