<?xml version="1.0" encoding="utf-8"?>
<!-- Generator: Adobe Illustrator 19.1.0, SVG Export Plug-In . SVG Version: 6.00 Build 0)  -->
<svg version="1.1" id="Layer_1" xmlns="http://www.w3.org/2000/svg" xmlns:xlink="http://www.w3.org/1999/xlink" x="0px" y="0px"
	 viewBox="0 0 30.8 30.8" style="enable-background:new 0 0 30.8 30.8;" xml:space="preserve">
<style type="text/css">
	.st0{fill:#00ACE3;}
</style>
<path class="st0" d="M15.4,0C6.9,0,0,6.9,0,15.4c0,8.5,6.9,15.4,15.4,15.4c8.5,0,15.4-6.9,15.4-15.4C30.8,6.9,23.9,0,15.4,0z
	 M23.1,11.5c0,0.2,0,0.3,0,0.5c0,5.1-4,11.1-11.2,11.1c-2.2,0-4.3-0.6-6.1-1.7c0.3,0,0.6,0.1,0.9,0.1c1.9,0,3.6-0.6,4.9-1.7
	c-1.7,0-3.2-1.2-3.7-2.7c0.2,0,0.5,0.1,0.7,0.1c0.4,0,0.7,0,1-0.1c-1.8-0.4-3.2-1.9-3.2-3.8v0c0.5,0.3,1.1,0.5,1.8,0.5
	c-1.1-0.7-1.8-1.9-1.8-3.2c0-0.7,0.2-1.4,0.5-2c1.9,2.4,4.9,3.9,8.1,4.1c-0.1-0.3-0.1-0.6-0.1-0.9c0-2.1,1.8-3.9,3.9-3.9
	c1.1,0,2.2,0.5,2.9,1.2c0.9-0.2,1.7-0.5,2.5-0.9c-0.3,0.9-0.9,1.7-1.7,2.2c0.8-0.1,1.6-0.3,2.3-0.6C24.5,10.3,23.8,11,23.1,11.5z"/>
</svg>
